<svg width="24" height="24" viewBox="0 0 24 24" fill="none" xmlns="http://www.w3.org/2000/svg">
<path fill-rule="evenodd" clip-rule="evenodd" d="M12 0C5.3726 0 0 5.37253 0 12C0 18.6274 5.3726 24 12 24C18.6275 24 24 18.6274 24 12C24 5.37253 18.6275 0 12 0ZM12 21.6C6.70657 21.6 2.4 17.2934 2.4 12C2.4 6.70657 6.70657 2.4 12 2.4C17.2935 2.4 21.6 6.70657 21.6 12C21.6 17.2934 17.2935 21.6 12 21.6ZM13.5026 7.2C13.5026 8.07005 12.8692 8.7 12.0122 8.7C11.1206 8.7 10.5026 8.07005 10.5026 7.18336C10.5026 6.33114 11.1373 5.7 12.0122 5.7C12.8692 5.7 13.5026 6.33114 13.5026 7.2ZM10.8026 10.8H13.2026V18H10.8026V10.8Z" fill="white"/>
</svg>
