<svg width="24" height="24" viewBox="0 0 24 24" fill="none" xmlns="http://www.w3.org/2000/svg">
<path d="M15.3628 12.739C15.2031 12.5794 14.9484 12.5655 14.7726 12.7075L13.941 13.3784C13.7762 13.5113 13.54 13.5088 13.3779 13.3722C13.3779 13.3722 12.6686 12.8947 11.8865 12.1132C11.1056 11.3317 10.6279 10.6223 10.6279 10.6223C10.4915 10.4604 10.4887 10.2239 10.622 10.0591L11.2925 9.22744C11.4344 9.05166 11.4209 8.79713 11.2609 8.6371L9.668 7.04405C9.50577 6.88182 9.24688 6.87085 9.07091 7.01733L7.0723 8.69639C6.91227 8.83149 6.86811 9.0593 6.96702 9.24389C6.96702 9.24389 7.2358 9.7921 7.48517 10.2118C8.17077 11.3657 9.28513 12.7298 10.2773 13.7222C11.27 14.7147 12.6343 15.8291 13.7882 16.5146C14.2077 16.7643 14.7561 17.0328 14.7561 17.0328C14.9405 17.1316 15.169 17.0881 15.3036 16.9277L16.9823 14.9289C17.1291 14.7531 17.1181 14.4942 16.9563 14.332L15.3628 12.739Z" fill="white"/>
<path d="M12 0C5.37253 0 0 5.37267 0 12C0 18.6273 5.37253 24 12 24C18.6277 24 24 18.6273 24 12C24 5.37267 18.6277 0 12 0ZM12 22.125C6.41709 22.125 1.875 17.5829 1.875 12C1.875 6.41709 6.41709 1.875 12 1.875C17.5829 1.875 22.125 6.41709 22.125 12C22.125 17.5829 17.5829 22.125 12 22.125Z" fill="white"/>
</svg>
