<svg width="469" height="421" viewBox="0 0 469 421" fill="none" xmlns="http://www.w3.org/2000/svg">
<path d="M447.979 410.63H22.1201V420.804H447.979V410.63Z" fill="#7660E3"/>
<path d="M380.231 349.073L315.715 376.014V410.552H135.028V376.014L70.5127 349.073C70.5127 349.073 120.262 258.551 145.136 239.995L172.62 235.814L182.858 234.262L225.372 227.796L267.885 234.262L278.123 235.814L305.607 239.995C330.482 258.551 380.231 349.073 380.231 349.073Z" fill="#FFC55D"/>
<path d="M86.131 337.593C86.131 337.593 45.5176 402.878 115.14 402.878L139.895 354.729L86.131 337.593Z" fill="#F45D85"/>
<path d="M74.5282 321.277C75.6884 322.904 142.216 354.729 142.216 354.729L134.481 373.614C134.481 373.614 62.1509 348.72 62.9251 348.227C63.6982 347.735 74.5282 321.277 74.5282 321.277Z" fill="white"/>
<path d="M363.122 337.593C363.122 337.593 409.875 402.878 335.222 402.878L309.358 354.729L363.122 337.593Z" fill="#F45D85"/>
<path d="M374.726 321.277C373.566 322.904 307.038 354.729 307.038 354.729L314.773 373.614C314.773 373.614 387.104 348.72 386.329 348.227C385.556 347.735 374.726 321.277 374.726 321.277Z" fill="white"/>
<path d="M278.124 235.813C275.704 258.368 273.368 292.13 225.372 330.828C177.376 292.13 175.039 258.368 172.62 235.813L182.858 234.261L225.372 227.795L267.885 234.261L278.124 235.813Z" fill="white"/>
<path d="M225.371 320.763C184.192 286.72 182.416 246.029 182.857 234.261L225.371 227.795L267.884 234.261C268.326 246.029 266.551 286.72 225.371 320.763Z" fill="#F45D85"/>
<path d="M243.86 211.695H206.883V245.968H243.86V211.695Z" fill="#F45D85"/>
<path d="M184.237 80.8138C200.586 66.0318 200.586 42.0655 184.237 27.2835C167.889 12.5015 141.382 12.5015 125.033 27.2835C108.684 42.0655 108.684 66.0318 125.033 80.8138C141.382 95.5958 167.889 95.5958 184.237 80.8138Z" fill="#2D2566"/>
<path d="M290.33 97.457L281.707 175.351L281.309 179.012C280.2 189.019 275.768 198.062 269.076 205.293C259.203 215.916 244.427 222.596 228.047 222.596C211.666 222.596 196.891 215.916 187.018 205.293C180.326 198.061 175.894 189.018 174.785 179.012L174.387 175.351L165.764 97.457H290.33Z" fill="#FF90AA"/>
<path d="M172.037 157.442C172.037 157.442 188.305 133.127 186.05 97.452C186.05 97.452 181.957 82.163 165.402 82.163C148.848 82.163 128.714 131.302 172.037 157.442Z" fill="#413580"/>
<path d="M284.055 157.442C284.055 157.442 267.787 133.127 270.042 97.452C270.042 97.452 274.135 82.163 290.69 82.163C307.244 82.163 327.379 131.302 284.055 157.442Z" fill="#413580"/>
<path d="M236.168 125.325C232.773 121.282 229.379 117.239 225.985 113.197C237.896 116.183 250.373 117.317 262.703 116.534C276.386 115.665 290.62 112.044 299.979 102.976C309.338 93.908 311.816 78.358 302.539 69.222C299.281 66.015 294.968 63.865 290.654 61.931C263.424 49.723 231.374 43.959 202.338 52.078C190.222 55.466 178.379 61.681 172.252 71.721C152.457 104.162 210.536 123.206 236.168 125.325Z" fill="#413580"/>
<path d="M169.528 145.132C167.415 142.834 164.78 140.808 161.616 139.943C158.452 139.078 154.702 139.565 152.381 141.693C150.964 142.992 150.192 144.758 149.717 146.531C148.232 152.067 149.367 157.989 151.93 163.192C154.047 167.489 157.278 171.518 161.864 173.741C166.449 175.964 172.536 176.02 176.561 173.04L176.278 159.743C175.7 154.411 173.315 149.251 169.528 145.132Z" fill="#FF90AA"/>
<path d="M306.378 146.53C305.902 144.757 305.13 142.991 303.714 141.692C301.392 139.564 297.644 139.077 294.48 139.942C291.315 140.807 288.68 142.833 286.567 145.131C282.779 149.25 280.396 154.41 279.816 159.741L279.533 173.038C283.559 176.018 289.645 175.962 294.231 173.739C298.816 171.516 302.048 167.487 304.165 163.19C306.728 157.988 307.861 152.066 306.378 146.53Z" fill="#FF90AA"/>
<path d="M169.233 160.595C167.541 155.021 163.44 150.075 157.774 147.332C156.673 146.799 155.757 148.228 156.799 148.84C160.995 151.304 164.298 154.844 166.124 159.025C164.486 158.996 162.79 159.773 161.991 161.112C160.417 163.748 162.717 166.839 165.593 167.618C167.067 168.018 167.697 165.937 166.228 165.537C164.819 165.154 163.318 163.605 164.058 162.203C164.602 161.171 166.355 160.789 167.233 161.647C168.057 162.456 169.541 161.612 169.233 160.595Z" fill="#2D2566"/>
<path d="M168.214 176.229C168.214 178.471 166.204 180.288 163.725 180.288C161.245 180.288 159.235 178.471 159.235 176.229C159.235 173.987 161.245 172.17 163.725 172.17C166.204 172.17 168.214 173.988 168.214 176.229Z" fill="#C6BBFE"/>
<path d="M286.86 160.595C288.552 155.021 292.653 150.075 298.319 147.332C299.42 146.799 300.335 148.228 299.294 148.84C295.097 151.304 291.795 154.844 289.968 159.025C291.606 158.996 293.301 159.773 294.101 161.112C295.675 163.748 293.374 166.839 290.499 167.618C289.024 168.018 288.395 165.937 289.864 165.537C291.273 165.154 292.774 163.605 292.034 162.203C291.49 161.171 289.737 160.789 288.858 161.647C288.036 162.456 286.551 161.612 286.86 160.595Z" fill="#2D2566"/>
<path d="M287.879 176.229C287.879 178.471 289.888 180.288 292.368 180.288C294.848 180.288 296.857 178.471 296.857 176.229C296.857 173.987 294.848 172.17 292.368 172.17C289.888 172.17 287.879 173.988 287.879 176.229Z" fill="#C6BBFE"/>
<path d="M193.396 192.487C193.396 197.587 190.938 202.172 187.017 205.294C180.326 198.062 175.893 189.019 174.785 179.013L174.387 175.352H174.443C184.915 175.351 193.396 183.02 193.396 192.487Z" fill="#F45D85"/>
<path d="M281.706 175.351L281.308 179.012C280.2 189.019 275.767 198.062 269.076 205.293C265.155 202.172 262.697 197.586 262.697 192.486C262.697 183.019 271.179 175.35 281.649 175.35L281.706 175.351Z" fill="#F45D85"/>
<path d="M236.329 176.9C233.727 174.514 231.558 171.769 229.905 168.767C229.067 167.243 228.371 165.666 227.829 164.036C227.355 162.608 227.367 160.644 226.201 159.551C225.717 159.097 224.689 159.147 224.371 159.764C223.728 161.008 224.257 162.271 224.626 163.552C225.041 164.988 225.58 166.391 226.212 167.76C227.47 170.487 229.143 173.009 231.171 175.324C232.179 176.476 233.348 177.519 234.512 178.542C235.109 179.067 235.916 179.67 235.936 180.489C235.957 181.343 235.099 182.232 234.557 182.842C232.207 185.49 229.43 187.675 226.751 190.028C226.02 190.671 226.971 191.829 227.854 191.32C231.09 189.457 234.007 186.826 236.455 184.173C237.421 183.127 238.409 181.914 238.428 180.488C238.449 179.011 237.414 177.895 236.329 176.9Z" fill="#2D2566"/>
<path d="M210.294 163.773C210.294 167.269 208.474 170.103 206.23 170.103C203.986 170.103 202.165 167.269 202.165 163.773C202.165 160.277 203.984 157.443 206.23 157.443C208.475 157.443 210.294 160.277 210.294 163.773Z" fill="#2D2566"/>
<path d="M253.929 163.773C253.929 167.269 252.108 170.103 249.864 170.103C247.619 170.103 245.8 167.269 245.8 163.773C245.8 160.277 247.62 157.443 249.864 157.443C252.108 157.442 253.929 160.277 253.929 163.773Z" fill="#2D2566"/>
<path d="M205.263 135.635C206.64 135.049 208.208 134.489 209.642 134.947C210.59 135.25 211.325 135.972 211.751 136.796C212.906 139.028 211.857 141.784 209.956 143.551C208.057 145.318 205.469 146.313 202.957 147.265C201.126 147.958 199.295 148.651 197.464 149.344C192.597 151.187 189.492 148.625 192.265 144.434C194.972 140.341 200.66 137.591 205.263 135.635Z" fill="#413580"/>
<path d="M250.83 135.635C249.453 135.049 247.884 134.489 246.45 134.947C245.502 135.25 244.768 135.972 244.342 136.796C243.187 139.028 244.237 141.784 246.137 143.551C248.036 145.318 250.624 146.313 253.137 147.265C254.967 147.958 256.799 148.651 258.629 149.344C263.497 151.187 266.601 148.625 263.828 144.434C261.12 140.341 255.432 137.591 250.83 135.635Z" fill="#413580"/>
<path d="M212.233 195.807C212.233 195.807 232.855 198.057 245.799 190.322C245.799 190.322 240.212 204.741 229.016 205.317C217.821 205.893 212.233 195.807 212.233 195.807Z" fill="#F0EEFF"/>
<path d="M245.675 294.7H205.068C202.755 294.7 200.879 293.004 200.879 290.912V219.186C200.879 217.094 202.755 215.398 205.068 215.398H245.675C247.989 215.398 249.865 217.094 249.865 219.186V290.912C249.865 293.004 247.989 294.7 245.675 294.7Z" fill="#413580"/>
<path d="M225.372 239.923C229.222 239.923 232.343 237.101 232.343 233.62C232.343 230.139 229.222 227.317 225.372 227.317C221.521 227.317 218.4 230.139 218.4 233.62C218.4 237.101 221.521 239.923 225.372 239.923Z" fill="#7660E3"/>
<path d="M208.45 225.439C210.54 225.439 212.235 223.907 212.235 222.017C212.235 220.127 210.54 218.595 208.45 218.595C206.36 218.595 204.665 220.127 204.665 222.017C204.665 223.907 206.36 225.439 208.45 225.439Z" fill="#2D2566"/>
<path d="M212.234 229.924C212.234 231.814 210.539 233.346 208.449 233.346C206.358 233.346 204.664 231.814 204.664 229.924C204.664 228.034 206.358 226.502 208.449 226.502C210.539 226.502 212.234 228.034 212.234 229.924Z" fill="#2D2566"/>
<path d="M217.96 225.97C217.96 227.08 216.964 227.98 215.737 227.98C214.509 227.98 213.514 227.08 213.514 225.97C213.514 224.86 214.509 223.96 215.737 223.96C216.965 223.96 217.96 224.86 217.96 225.97Z" fill="#F0EEFF"/>
<path d="M95.6671 354.21L192.851 274.513C192.851 274.513 192.772 242.275 196.655 240.046C200.539 237.816 222.943 251.424 221.419 255.164C219.895 258.905 208.747 252.794 208.747 252.794C208.747 252.794 220.682 265.656 218.593 268.269C216.504 270.882 206.611 262.211 206.611 262.211C206.611 262.211 219.787 276.521 216.869 279.131C213.952 281.74 206.554 271.582 206.554 271.582C206.554 271.582 212.952 287.398 201.167 293.316L141.068 388.651C132.064 403.386 110.601 407.314 95.9691 396.905C80.7262 386.063 80.5791 365.227 95.6671 354.21Z" fill="#FF90AA"/>
<path d="M355.076 354.21L257.892 274.513C257.892 274.513 257.972 242.275 254.089 240.046C250.204 237.816 227.8 251.424 229.324 255.164C230.848 258.905 241.997 252.794 241.997 252.794C241.997 252.794 230.061 265.656 232.15 268.269C234.239 270.882 244.134 262.211 244.134 262.211C244.134 262.211 230.958 276.521 233.875 279.131C236.793 281.74 244.191 271.582 244.191 271.582C244.191 271.582 237.793 287.398 249.577 293.316L309.676 388.651C318.68 403.386 340.143 407.314 354.776 396.905C370.016 386.063 370.163 365.227 355.076 354.21Z" fill="#FF90AA"/>
<path d="M365.038 295.467L360.137 313.047L339.189 406.557H111.552L108.699 393.807L85.8157 295.717C83.2863 286.401 88.7687 282.907 94.0333 282.907H356.708C361.973 282.906 367.185 287.838 365.038 295.467Z" fill="#D9D5FB"/>
<path d="M364.871 296.002L360.137 317.122L339.19 410.632H111.553L108.699 397.882L85.8714 296.002C84.8318 291.342 88.7691 286.982 94.0337 286.982H356.709C361.973 286.982 365.911 291.342 364.871 296.002Z" fill="#C6BBFE"/>
<path d="M360.137 317.122L339.19 410.632H111.553L108.699 397.882L360.137 317.122Z" fill="#D9D5FB"/>
<path d="M225.371 370.717C236.366 370.717 245.279 362.658 245.279 352.717C245.279 342.776 236.366 334.717 225.371 334.717C214.376 334.717 205.463 342.776 205.463 352.717C205.463 362.658 214.376 370.717 225.371 370.717Z" fill="white"/>
<path d="M340.758 403.817H109.984V410.632H340.758V403.817Z" fill="#C6BBFE"/>
<path d="M74.1302 353.999L73.8847 352.047C71.2148 344.156 72.5763 335.568 76.3201 328.103C80.5417 319.685 87.7639 312.891 95.8366 307.369C100.575 304.128 105.617 301.268 110.764 298.594C111.48 298.222 112.362 298.743 112.049 299.508C109.999 304.534 107.983 309.571 105.965 314.608C104.022 319.462 102.146 324.355 99.7297 329.038C95.528 337.179 89.3919 344.378 81.6123 349.986C80.5561 350.748 79.4722 351.477 78.3618 352.174C77.519 352.703 76.611 353.371 75.6632 353.795C75.6256 353.879 75.5725 353.955 75.4973 354.012C74.8491 356.274 74.2884 358.556 73.8217 360.854C72.7876 365.945 72.2003 371.106 72.0454 376.279C72.0255 376.955 70.8885 376.796 70.8985 376.133C71.0124 368.602 72.1328 361.195 74.1302 353.999Z" fill="#7660E3"/>
<path d="M47.4636 353.999L47.7092 352.047C50.379 344.156 49.0175 335.568 45.2737 328.103C41.0521 319.685 33.83 312.891 25.7573 307.369C21.0192 304.128 15.9769 301.268 10.8296 298.594C10.114 298.222 9.23141 298.743 9.54441 299.508C11.5949 304.534 13.6112 309.571 15.6285 314.608C17.5718 319.462 19.4475 324.355 21.8641 329.038C26.0658 337.179 32.2019 344.378 39.9815 349.986C41.0378 350.748 42.1216 351.477 43.2321 352.174C44.0748 352.703 44.9829 353.371 45.9296 353.795C45.9672 353.879 46.0203 353.955 46.0955 354.012C46.7436 356.274 47.3044 358.556 47.7711 360.854C48.8052 365.945 49.3925 371.106 49.5473 376.279C49.5672 376.955 50.7042 376.796 50.6942 376.133C50.5814 368.602 49.4611 361.195 47.4636 353.999Z" fill="#413580"/>
<path d="M80.0199 319.247C78.8774 308.265 73.6516 298.062 66.9183 288.994C62.9665 283.672 58.5082 278.673 53.8509 273.846C53.2039 273.175 51.9839 273.453 52.0072 274.426C52.1598 280.817 52.2682 287.209 52.3777 293.601C52.4827 299.76 52.4938 305.94 53.2072 312.073C54.447 322.734 58.2738 333.013 64.6388 342.075C65.5026 343.305 66.4117 344.51 67.3651 345.686C68.0884 346.579 68.825 347.652 69.712 348.464C69.7175 348.572 69.7463 348.676 69.806 348.768C69.5649 351.547 69.2154 354.319 68.7542 357.076C67.7312 363.183 66.175 369.212 64.1245 375.103C63.8568 375.873 65.2073 376.093 65.4805 375.342C68.5916 366.805 70.5128 358.054 71.3544 349.233L72.4715 347.117C78.8763 339.153 81.033 328.985 80.0199 319.247Z" fill="#413580"/>
<path d="M33.7452 282.639C34.8324 288.328 35.9118 294.018 37.0123 299.705C40.3845 317.129 42.8929 336.574 56.0554 350.552C56.0333 350.603 56.0399 350.821 56.2346 351.413C56.7566 359.063 56.2202 366.769 54.6242 374.296C54.4904 374.929 55.5555 375.201 55.6993 374.564C57.4379 366.851 58.0473 358.971 57.5231 351.119C57.6326 350.664 57.6326 350.664 57.6326 350.664C59.661 345.803 60.5447 340.622 60.4429 335.431C60.0481 315.273 46.4398 298.518 35.0967 282.126C34.6289 281.45 33.6069 281.915 33.7452 282.639Z" fill="#7660E3"/>
<path d="M74.7856 376.068C75.0555 376.759 76.1659 376.304 75.9293 375.626C73.4806 368.577 75.6373 360.747 77.5396 353.792C78.3824 350.713 79.5669 347.736 81.6583 345.159C81.8132 344.969 81.9946 344.798 82.156 344.613C84.9774 347.207 88.3872 349.185 92.1476 350.496C95.7698 351.759 99.6441 352.433 103.52 352.558C108.05 352.703 112.573 352.242 117.097 352.673C125.251 353.449 133.035 356.359 139.456 360.959C140.041 361.378 140.992 360.743 140.632 360.118C136.524 352.967 131.149 346.259 123.908 341.445C112.883 334.116 97.4255 331.822 85.8091 339.41C83.0585 341.207 80.6828 343.509 78.9884 346.172C77.1094 349.126 76.2113 352.431 75.4249 355.734C73.84 362.396 72.1932 369.432 74.7856 376.068Z" fill="#413580"/>
<path d="M51.4687 358.967C51.2928 356.337 51.0307 353.693 49.9667 351.216C49.0067 348.983 47.4749 346.955 45.5892 345.277C37.6216 338.192 25.408 338.315 15.955 342.792C9.74595 345.732 4.73024 350.331 0.6314 355.407C0.273056 355.85 0.92449 356.441 1.42993 356.18C6.97873 353.317 13.3581 351.902 19.7453 352.171C23.2878 352.321 26.7153 353.157 30.2269 353.527C33.2308 353.844 36.3054 353.736 39.2618 353.148C42.3309 352.537 45.2165 351.376 47.7293 349.676C47.8299 349.836 47.9483 349.987 48.0423 350.15C49.3186 352.359 49.8451 354.779 50.0939 357.243C50.6547 362.807 51.2984 369.072 48.4935 374.246C48.2237 374.744 49.02 375.213 49.3175 374.709C52.1776 369.87 51.8237 364.271 51.4687 358.967Z" fill="#7660E3"/>
<path d="M26.1162 377.272C26.1162 380.592 26.813 402.332 44.7678 410.632H76.8318C96.2919 401.632 95.4746 376.842 95.4746 376.842H26.1251C26.1251 376.842 26.1162 376.992 26.1162 377.272Z" fill="#FFC55D"/>
<path d="M21.6836 379.04H99.9121V372.568H21.6836V379.04Z" fill="white"/>
<path d="M448.968 268.542C459.804 252.41 454.125 231.39 436.283 221.593C418.441 211.795 395.193 216.93 384.357 233.062C373.521 249.194 379.2 270.214 397.042 280.011C414.884 289.809 438.132 284.674 448.968 268.542Z" fill="#F45D85"/>
<path d="M385.999 262.766L371.635 282.721L396.447 275.46" fill="#F45D85"/>
<path d="M439.669 232.199L390.61 243.214L397.472 268.198L446.531 257.183L439.669 232.199Z" fill="#C6BBFE"/>
<path d="M397.48 268.213L418.838 251.156L446.539 257.199L397.48 268.213Z" fill="#D9D5FB"/>
<path d="M390.619 243.228L416.286 255.597C418.757 256.788 421.824 256.099 423.391 254.002L439.678 232.214" fill="white"/>
<path d="M69.1558 241.311C96.9197 241.311 119.427 220.961 119.427 195.858C119.427 170.755 96.9197 150.405 69.1558 150.405C41.3919 150.405 18.8848 170.755 18.8848 195.858C18.8848 220.961 41.3919 241.311 69.1558 241.311Z" fill="#2D2566"/>
<path d="M107.187 216.622L122.138 245.258L90.8887 231.647" fill="#2D2566"/>
<path d="M35.476 183.263H89.6191C91.1012 183.263 92.3012 182.177 92.3012 180.838C92.3012 179.499 91.1 178.413 89.6191 178.413H35.476C33.9951 178.413 32.7939 179.499 32.7939 180.838C32.7939 182.177 33.9951 183.263 35.476 183.263Z" fill="white"/>
<path d="M89.6202 188.426H35.476C33.9951 188.426 32.7939 189.512 32.7939 190.851C32.7939 192.19 33.9951 193.276 35.476 193.276H89.6191C91.1012 193.276 92.3012 192.19 92.3012 190.851C92.3023 189.512 91.1012 188.426 89.6202 188.426Z" fill="white"/>
<path d="M89.6202 198.44H35.476C33.9951 198.44 32.7939 199.526 32.7939 200.865C32.7939 202.205 33.9951 203.29 35.476 203.29H89.6191C91.1012 203.29 92.3012 202.204 92.3012 200.865C92.3023 199.526 91.1012 198.44 89.6202 198.44Z" fill="white"/>
<path d="M89.6202 208.454H35.476C33.9951 208.454 32.7939 209.54 32.7939 210.879C32.7939 212.218 33.9951 213.304 35.476 213.304H89.6191C91.1012 213.304 92.3012 212.218 92.3012 210.879C92.3023 209.54 91.1012 208.454 89.6202 208.454Z" fill="white"/>
<path d="M105.518 179.402H98.4023L99.901 204.462H104.021L105.518 179.402Z" fill="#F45D85"/>
<path d="M105.518 209.098C105.518 210.875 103.926 212.315 101.96 212.315C99.995 212.315 98.4023 210.875 98.4023 209.098C98.4023 207.321 99.995 205.881 101.96 205.881C103.926 205.881 105.518 207.321 105.518 209.098Z" fill="#F45D85"/>
<path d="M378.933 211.149C406.697 211.149 429.204 190.799 429.204 165.696C429.204 140.593 406.697 120.243 378.933 120.243C351.169 120.243 328.662 140.593 328.662 165.696C328.662 190.799 351.169 211.149 378.933 211.149Z" fill="#7660E3"/>
<path d="M340.903 186.46L325.951 215.095L357.2 201.484" fill="#7660E3"/>
<path d="M399.995 138.25C399.277 138.25 398.558 138.241 397.84 138.252C396.434 138.273 395.497 138.877 394.948 140.061C393.14 143.948 391.322 147.831 389.463 151.697C388.868 152.935 389.013 153.977 390.014 154.982C391.417 156.39 392.733 157.871 394.159 159.261C395.16 160.236 395.287 161.161 394.541 162.326C389.286 170.522 381.664 176.157 371.943 179.562C370.758 179.977 370.004 179.56 369.322 178.754C367.827 176.992 366.32 175.238 364.811 173.486C363.368 171.811 362.785 171.67 360.704 172.533C356.574 174.245 352.447 175.965 348.326 177.696C346.307 178.544 346.098 179.134 346.439 181.169C348.135 191.306 358.475 194.962 367.633 192.506C386.511 187.443 400.197 176.684 409.13 160.955C411.347 157.051 412.119 152.741 411.158 148.314C410.293 144.333 407.679 141.374 404.313 138.887C403.057 137.959 401.496 138.116 399.995 138.25Z" fill="#FEFEFE"/>
<path d="M358.454 141.572C367.348 141.572 374.557 135.053 374.557 127.012C374.557 118.971 367.348 112.452 358.454 112.452C349.56 112.452 342.351 118.971 342.351 127.012C342.351 135.053 349.56 141.572 358.454 141.572Z" fill="#F45D85"/>
<path d="M425.618 390.832C424.701 390.832 423.754 390.784 422.775 390.685L423.263 386.71C433.665 387.753 438.427 381.821 439.091 377.578C439.397 375.619 438.959 373.209 436.714 372.859C429.557 371.748 423.524 378.361 423.464 378.427L420.023 375.913C420.333 375.564 427.729 367.395 437.464 368.917C441.748 369.583 444.217 373.375 443.473 378.137C442.441 384.717 436.047 390.832 425.618 390.832Z" fill="#413580"/>
<path d="M402.48 407.996C389.335 407.996 378.679 398.361 378.679 386.476V366.698H426.28V386.476C426.281 398.361 415.625 407.996 402.48 407.996Z" fill="#7660E3"/>
<path d="M432.203 405.441H372.755C372.755 408.264 375.285 410.552 378.408 410.552H426.551C429.673 410.552 432.203 408.263 432.203 405.441Z" fill="#413580"/>
<path d="M397.857 356.506C397.662 355.123 396.652 354.211 395.464 353.421C394.754 352.949 393.952 352.524 393.426 351.869C392.709 350.978 392.796 349.911 393.11 348.897C393.679 347.058 395.051 345.546 395.69 343.728C396.226 342.203 396.13 340.671 395.432 339.206C394.76 337.795 393.598 336.652 392.817 335.297C391.08 332.284 394.957 330.481 396.116 327.98C397.023 326.025 396.31 324.145 395.545 322.264C395.084 321.13 394.759 319.98 394.678 318.77C394.601 317.61 394.862 316.499 394.996 315.352C395.089 314.567 393.879 314.428 393.475 314.979C392.379 316.473 392.077 318.538 392.251 320.296C392.446 322.259 393.924 324.074 393.896 326.022C393.875 327.508 392.477 328.62 391.518 329.699C390.548 330.79 389.714 331.978 389.63 333.416C389.546 334.846 390.22 336.168 391.076 337.333C391.967 338.546 393.329 339.795 393.685 341.253C394.147 343.149 392.695 345.067 391.896 346.732C391.218 348.146 390.722 349.766 391.164 351.306C391.626 352.915 393.038 353.767 394.464 354.651C395.507 355.297 396.486 356.016 396.452 357.281C396.418 358.553 395.609 359.744 394.902 360.799C394.481 361.428 395.542 361.974 395.984 361.371C397.035 359.94 398.108 358.293 397.857 356.506Z" fill="white"/>
<path d="M404.652 354.194C404.436 353.35 403.966 352.658 403.41 351.965C402.688 351.064 402.504 350.349 402.926 349.281C403.263 348.431 403.771 347.645 404.08 346.783C404.414 345.852 404.546 344.844 404.541 343.867C404.533 341.971 404.335 339.44 403.09 337.855C402.598 337.228 401.577 337.461 401.512 338.241C401.431 339.21 401.782 340.092 402.011 341.027C402.253 342.017 402.476 343.03 402.474 344.048C402.47 345.951 401.44 347.344 400.891 349.111C400.389 350.726 400.947 351.866 402.031 353.124C403.332 354.634 403.748 356.494 402.746 358.242C402.365 358.909 403.447 359.492 403.865 358.833C404.75 357.438 405.053 355.771 404.652 354.194Z" fill="white"/>
<path d="M414.371 343.654C413.469 342.273 412.127 341.241 412.064 339.531C412.002 337.864 412.774 336.226 413.273 334.651C414.082 332.099 414.469 329.077 412.176 327.079C411.585 326.564 410.445 327.272 410.988 327.907C413.364 330.688 410.676 334.121 409.866 336.937C409.42 338.488 409.277 340.126 409.93 341.648C410.587 343.179 412.123 344.241 412.726 345.78C414.068 349.205 410.716 352.61 409.879 355.811C409.211 358.365 409.768 361.251 412.326 362.778C413.092 363.234 413.767 362.146 413.038 361.678C409.531 359.43 412.273 355.019 413.638 352.441C415.094 349.694 416.223 346.487 414.371 343.654Z" fill="white"/>
</svg>
