<svg width="24" height="24" viewBox="0 0 24 24" fill="none" xmlns="http://www.w3.org/2000/svg">
<path d="M2.66667 24C1.93333 24 1.30533 23.7391 0.782667 23.2173C0.260889 22.6947 0 22.0667 0 21.3333V12C0 10.3333 0.316444 8.772 0.949333 7.316C1.58311 5.86089 2.43911 4.59422 3.51733 3.516C4.59467 2.43867 5.86133 1.58311 7.31733 0.949333C8.77244 0.316444 10.3333 0 12 0C13.6667 0 15.228 0.316444 16.684 0.949333C18.1391 1.58311 19.4058 2.43867 20.484 3.516C21.5613 4.59422 22.4169 5.86089 23.0507 7.316C23.6836 8.772 24 10.3333 24 12V21.3333C24 22.0667 23.7391 22.6947 23.2173 23.2173C22.6947 23.7391 22.0667 24 21.3333 24H18.6667C17.9333 24 17.3058 23.7391 16.784 23.2173C16.2613 22.6947 16 22.0667 16 21.3333V16C16 15.2667 16.2613 14.6387 16.784 14.116C17.3058 13.5942 17.9333 13.3333 18.6667 13.3333H21.3333V12C21.3333 9.4 20.4276 7.19422 18.616 5.38267C16.8053 3.572 14.6 2.66667 12 2.66667C9.4 2.66667 7.19467 3.572 5.384 5.38267C3.57244 7.19422 2.66667 9.4 2.66667 12V13.3333H5.33333C6.06667 13.3333 6.69422 13.5942 7.216 14.116C7.73867 14.6387 8 15.2667 8 16V21.3333C8 22.0667 7.73867 22.6947 7.216 23.2173C6.69422 23.7391 6.06667 24 5.33333 24H2.66667Z" fill="#00C0C0"/>
</svg>
