<svg width="30" height="30" viewBox="0 0 30 30" fill="none" xmlns="http://www.w3.org/2000/svg">
<path fill-rule="evenodd" clip-rule="evenodd" d="M2.31745 5.34507C1.5 6.94941 1.5 9.04961 1.5 13.25V16.75C1.5 20.9504 1.5 23.0506 2.31745 24.6549C3.0365 26.0661 4.18385 27.2135 5.59507 27.9325C7.19941 28.75 9.29961 28.75 13.5 28.75H17C21.2004 28.75 23.3006 28.75 24.9049 27.9325C26.3161 27.2135 27.4635 26.0661 28.1825 24.6549C29 23.0506 29 20.9504 29 16.75V13.25C29 9.04961 29 6.94941 28.1825 5.34507C27.4635 3.93385 26.3161 2.7865 24.9049 2.06745C23.3006 1.25 21.2004 1.25 17 1.25H13.5C9.29961 1.25 7.19941 1.25 5.59507 2.06745C4.18385 2.7865 3.0365 3.93385 2.31745 5.34507ZM17 3.75H13.5C11.3585 3.75 9.90281 3.75195 8.7776 3.84387C7.68155 3.93342 7.12105 4.09574 6.73005 4.29496C5.78924 4.77434 5.02434 5.53924 4.54496 6.48005C4.34574 6.87105 4.18342 7.43155 4.09387 8.5276C4.00195 9.65281 4 11.1085 4 13.25V16.75C4 18.8915 4.00195 20.3471 4.09387 21.4724C4.18342 22.5685 4.34574 23.129 4.54496 23.52C5.02434 24.4607 5.78924 25.2256 6.73005 25.705C7.12105 25.9042 7.68155 26.0666 8.7776 26.1561C9.90281 26.248 11.3585 26.25 13.5 26.25H17C19.1415 26.25 20.5971 26.248 21.7224 26.1561C22.8185 26.0666 23.379 25.9042 23.77 25.705C24.7107 25.2256 25.4756 24.4607 25.955 23.52C26.1542 23.129 26.3166 22.5685 26.4061 21.4724C26.498 20.3471 26.5 18.8915 26.5 16.75V13.25C26.5 11.1085 26.498 9.65281 26.4061 8.5276C26.3166 7.43155 26.1542 6.87105 25.955 6.48005C25.4756 5.53924 24.7107 4.77434 23.77 4.29496C23.379 4.09574 22.8185 3.93342 21.7224 3.84387C20.5971 3.75195 19.1415 3.75 17 3.75Z" fill="#B3B5B5"/>
<path fill-rule="evenodd" clip-rule="evenodd" d="M15.25 22.375C19.3231 22.375 22.625 19.0731 22.625 15C22.625 10.9269 19.3231 7.625 15.25 7.625C11.1769 7.625 7.875 10.9269 7.875 15C7.875 19.0731 11.1769 22.375 15.25 22.375ZM15.25 19.9167C17.9654 19.9167 20.1667 17.7154 20.1667 15C20.1667 12.2846 17.9654 10.0833 15.25 10.0833C12.5346 10.0833 10.3333 12.2846 10.3333 15C10.3333 17.7154 12.5346 19.9167 15.25 19.9167Z" fill="#B3B5B5"/>
<path d="M22.6249 6.39587C21.946 6.39587 21.3958 6.9462 21.3958 7.62504C21.3958 8.30388 21.946 8.85421 22.6249 8.85421C23.3038 8.85421 23.8541 8.30388 23.8541 7.62504C23.8541 6.9462 23.3038 6.39587 22.6249 6.39587Z" fill="#B3B5B5"/>
</svg>
