<svg width="184" height="44" viewBox="0 0 184 44" fill="none" xmlns="http://www.w3.org/2000/svg">
<path d="M19.8216 33.716C22.8758 33.716 25.4533 32.3187 27.1859 30.0009C27.3913 29.7366 27.3448 29.4533 27.0774 29.2032L25.1161 27.5226C24.8719 27.2866 24.6433 27.3291 24.4378 27.5982C23.2983 29.0002 21.6859 29.8688 19.8332 29.8688C16.1899 29.8688 13.4147 26.6682 13.4147 21.8438C13.4147 17.0336 16.1899 13.852 19.81 13.852C21.6859 13.852 23.2867 14.7205 24.4378 16.1225C24.6433 16.3869 24.8836 16.4294 25.1161 16.1933L27.0774 14.4987C27.3293 14.2485 27.368 13.9511 27.1355 13.6726C25.3913 11.3737 22.8371 10 19.81 10C14.2131 10 10 14.7489 10 21.858C10 28.9671 14.2015 33.716 19.8216 33.716Z" fill="white"/>
<path d="M33.6774 33.5272C34.2821 33.5272 34.9371 33.48 35.6386 33.1873C35.9293 33.0551 36.0379 32.7577 35.941 32.4037L35.5185 30.5485C35.4216 30.1803 35.2123 30.0434 34.8867 30.1614C34.5844 30.2795 34.2821 30.3267 34.0495 30.3267C33.2627 30.3267 32.7666 29.7932 32.7666 28.5423V11.1377C32.7666 10.7364 32.5999 10.5287 32.2705 10.5287H30.1387C29.8131 10.5287 29.6426 10.7364 29.6426 11.1377V28.9813C29.6426 31.9316 31.3015 33.5272 33.6774 33.5272Z" fill="white"/>
<path d="M39.7546 16.3451C40.8437 16.3451 41.6576 15.3444 41.6576 14.0179C41.6576 12.7009 40.8437 11.6718 39.7546 11.6718C38.6654 11.6718 37.8398 12.7009 37.8398 14.0179C37.8398 15.3444 38.6654 16.3451 39.7546 16.3451ZM40.8321 33.4713C41.1615 33.4713 41.3282 33.2636 41.3282 32.867V18.4552C41.3282 18.0729 41.1615 17.851 40.8321 17.851H38.7003C38.3864 17.851 38.2042 18.0729 38.2042 18.4552V32.867C38.2042 33.2636 38.3864 33.4713 38.7003 33.4713H40.8321Z" fill="white"/>
<path d="M51.0054 33.8112C53.1604 33.8112 55.1488 32.6452 56.3464 30.7712C56.5286 30.4785 56.4821 30.2094 56.2147 29.9592L54.7108 28.3684C54.4472 28.1465 54.2418 28.2362 54.0209 28.5289C53.3542 29.6807 52.2418 30.403 51.0054 30.403C48.8271 30.403 47.1682 28.4251 47.1682 25.6683C47.1682 22.8973 48.8271 20.9194 51.0054 20.9194C52.2767 20.9194 53.3542 21.6558 54.0325 22.8076C54.2534 23.1144 54.4705 23.1758 54.7263 22.954L56.2147 21.3915C56.4705 21.1696 56.5286 20.8439 56.3348 20.537C55.1139 18.6913 53.1875 17.5253 51.0054 17.5253C47.083 17.5253 44.0791 20.8769 44.0791 25.6683C44.0791 30.4454 47.083 33.8112 51.0054 33.8112Z" fill="white"/>
<path d="M61.6865 33.4713C62.0159 33.4713 62.1826 33.2636 62.1826 32.8671V25.4936L67.0663 33.1031C67.2213 33.3533 67.4151 33.4713 67.6709 33.4713H70.3453C70.76 33.4713 70.9034 33.1314 70.6476 32.7349L65.4888 24.8705L70.2252 18.6016C70.5158 18.2192 70.3957 17.851 69.9577 17.851H67.1477C66.8957 17.851 66.7136 17.9549 66.5546 18.1909L62.1826 24.2521V11.4217C62.1826 11.0204 62.0159 10.8127 61.6865 10.8127H59.5547C59.2408 10.8127 59.0586 11.0204 59.0586 11.4217V32.8671C59.0586 33.2636 59.2408 33.4713 59.5547 33.4713H61.6865Z" fill="white"/>
<path d="M94.1657 28.2504L96.7122 24.9318C96.9292 24.6486 96.9408 24.3701 96.7238 24.0916L95.3788 22.4394C95.1618 22.1703 94.906 22.1137 94.6889 22.4252L92.0727 25.8146L85.9913 18.7338C85.0107 17.5725 84.7588 16.8644 84.7588 16.0053C84.7588 14.5183 85.5921 13.4987 86.7936 13.4987C87.9409 13.4987 88.813 14.4286 88.813 15.8306C88.813 16.3452 88.6696 16.9069 88.4138 17.4073C88.282 17.733 88.3053 18.0257 88.5107 18.2806L89.8324 19.8997C90.0611 20.183 90.3401 20.1971 90.5456 19.8431C91.2975 18.4977 91.6347 17.1288 91.6347 15.6513C91.6347 12.6868 89.5533 10.284 86.8518 10.284C83.8479 10.284 81.8518 12.8048 81.8518 16.1988C81.8518 17.7047 82.4565 19.1492 83.003 19.8856L82.1774 20.8297C80.9177 22.2034 80.2627 24.2096 80.2627 26.348C80.2627 30.4454 83.0379 34 86.7316 34C88.4991 34 90.0611 33.1172 91.5533 31.5075L92.1812 30.7853L94.6657 33.679C94.8944 33.9575 95.1347 33.9433 95.3672 33.6648L96.6734 32.0268C96.906 31.7436 96.906 31.4226 96.6618 31.1535L94.1657 28.2504ZM89.5417 29.0481C88.5843 30.1952 87.6657 30.6106 86.7549 30.6106C84.7433 30.6106 83.1231 28.6611 83.1231 26.3763C83.1231 25.2245 83.4603 24.1765 84.1774 23.3693L84.9991 22.4063L90.0998 28.3542L89.5417 29.0481Z" fill="white"/>
<path d="M116.366 34C119.42 34 121.997 32.6027 123.73 30.2849C123.935 30.0206 123.889 29.7373 123.621 29.4872L121.66 27.8066C121.416 27.5706 121.187 27.6131 120.982 27.8822C119.842 29.2842 118.23 30.1527 116.377 30.1527C112.734 30.1527 109.959 26.9522 109.959 22.1278C109.959 17.3176 112.734 14.136 116.354 14.136C118.23 14.136 119.831 15.0045 120.982 16.4065C121.187 16.6709 121.428 16.7134 121.66 16.4773L123.621 14.7827C123.873 14.5325 123.912 14.2351 123.679 13.9566C121.935 11.6577 119.381 10.284 116.354 10.284C110.757 10.284 106.544 15.0329 106.544 22.142C106.544 29.2511 110.745 34 116.366 34Z" fill="white"/>
<path d="M130.222 33.8112C130.827 33.8112 131.482 33.764 132.184 33.4713C132.474 33.3391 132.583 33.0417 132.486 32.6877L132.063 30.8325C131.967 30.4643 131.757 30.3274 131.432 30.4454C131.129 30.5635 130.827 30.6107 130.594 30.6107C129.808 30.6107 129.312 30.0772 129.312 28.8263V11.4217C129.312 11.0204 129.145 10.8127 128.815 10.8127H126.684C126.358 10.8127 126.188 11.0204 126.188 11.4217V29.2653C126.188 32.2156 127.846 33.8112 130.222 33.8112Z" fill="white"/>
<path d="M139.618 17.5253C138.203 17.5253 136.676 17.851 135.234 18.427C134.932 18.5591 134.811 18.8093 134.92 19.1917L135.428 21.1413C135.525 21.5236 135.742 21.6275 136.059 21.4953C137.172 20.9949 138.335 20.6692 139.338 20.6692C140.842 20.6692 141.982 21.3915 141.982 23.4118V24.3984C141.059 24.1199 140.152 23.9736 139.292 23.9736C136.408 23.9736 134.168 25.6541 134.168 29.0151C134.168 32.2629 136.203 33.8112 138.478 33.8112C139.862 33.8112 141.4 33.2494 142.428 31.5548L142.73 32.9426C142.792 33.3108 142.986 33.4713 143.276 33.4713H144.61C144.935 33.4713 145.106 33.2636 145.106 32.8671V23.2513C145.106 19.0737 142.633 17.5253 139.618 17.5253ZM139.23 31.0355C138.187 31.0355 137.292 30.3888 137.292 28.9585C137.292 27.3063 138.466 26.6549 140.017 26.6549C140.649 26.6549 141.304 26.7587 141.982 26.9522V27.6131C141.982 30.1811 140.381 31.0355 139.23 31.0355Z" fill="white"/>
<path d="M149.863 16.3451C150.952 16.3451 151.766 15.3444 151.766 14.0179C151.766 12.7009 150.952 11.6718 149.863 11.6718C148.774 11.6718 147.948 12.7009 147.948 14.0179C147.948 15.3444 148.774 16.3451 149.863 16.3451ZM150.94 33.4713C151.27 33.4713 151.437 33.2636 151.437 32.867V18.4552C151.437 18.0729 151.27 17.851 150.94 17.851H148.809C148.495 17.851 148.313 18.0729 148.313 18.4552V32.867C148.313 33.2636 148.495 33.4713 148.809 33.4713H150.94Z" fill="white"/>
<path d="M169.361 17.5253C167.737 17.5253 166.043 18.3986 164.989 19.9895C164.252 18.4411 162.88 17.5253 161.357 17.5253C160.058 17.5253 158.702 18.0871 157.43 19.6354L157.167 18.3797C157.093 18.0115 156.899 17.851 156.62 17.851H155.275C154.961 17.851 154.779 18.0729 154.779 18.4553V32.8671C154.779 33.2636 154.961 33.4713 155.275 33.4713H157.407C157.737 33.4713 157.903 33.2636 157.903 32.8671V24.1341C157.903 22.2317 158.934 20.858 160.496 20.858C162.093 20.858 162.845 22.2884 162.845 24.1955V32.8671C162.845 33.2636 163.016 33.4713 163.341 33.4713H165.473C165.802 33.4713 165.969 33.2636 165.969 32.8671V24.1341C165.969 22.2317 167.023 20.858 168.562 20.858C170.101 20.858 170.876 22.2884 170.876 24.1955V32.8671C170.876 33.2636 171.058 33.4713 171.372 33.4713H173.504C173.83 33.4713 174 33.2636 174 32.8671V23.5582C174 20.1688 172.233 17.5253 169.361 17.5253Z" fill="white"/>
</svg>
