<svg width="46" height="50" viewBox="0 0 46 50" fill="none" xmlns="http://www.w3.org/2000/svg">
<rect width="46" height="50" rx="10" fill="#343659"/>
<mask id="mask0_148_225" style="mask-type:luminance" maskUnits="userSpaceOnUse" x="8" y="10" width="30" height="30">
<path d="M8 10H38V40H8V10Z" fill="white"/>
</mask>
<g mask="url(#mask0_148_225)">
<path d="M23.0322 10C19.0174 10 15.2424 11.5637 12.4036 14.4036C9.56489 17.2424 8 21.0174 8 25.0322C8 29.0482 9.56369 32.8232 12.4036 35.662C15.2424 38.5007 19.0174 40.0644 23.0322 40.0644C25.5406 40.0644 28.0072 39.4382 30.197 38.2502L31.0069 39.2736C31.1059 39.3989 31.2538 39.4776 31.4148 39.4907C31.4291 39.4919 31.4447 39.4919 31.459 39.4919C31.6033 39.4919 31.744 39.4382 31.8514 39.338L34.4074 36.9704C34.5267 36.8607 34.5935 36.7044 34.5923 36.5422C34.5911 36.38 34.5219 36.2261 34.4003 36.1176L33.7693 35.5522C35.0456 34.2521 36.0642 32.7505 36.7989 31.0818C37.6386 29.171 38.0644 27.1362 38.0644 25.0322C38.0644 21.0174 36.5019 17.2424 33.662 14.4036C30.8232 11.5637 27.0482 10 23.0322 10ZM31.5234 38.0689L28.7025 34.505C28.5928 34.3667 28.4258 34.2867 28.2505 34.2867C28.2421 34.2867 28.235 34.2867 28.2266 34.2867C28.0417 34.2939 27.8724 34.3905 27.7698 34.5432L26.855 35.9196L25.9031 30.4139L31.3206 31.782L30.0933 32.4702L29.8774 32.5918C29.7152 32.6825 29.6078 32.8459 29.5864 33.032C29.5673 33.2168 29.6364 33.4005 29.7748 33.5234L33.1586 36.5541L31.5234 38.0689ZM25.6551 18.3445H19.8297V16.8154C19.8297 15.4151 20.9687 14.276 22.369 14.276H23.1169C24.516 14.276 25.6551 15.4151 25.6551 16.8154V18.3445ZM28.1276 19.4979L29.2345 30.0656L25.3247 29.078C25.135 29.0303 24.9346 29.0816 24.7915 29.214C24.6484 29.3476 24.5816 29.5432 24.615 29.7352L25.3771 34.1472H15.8566L17.3595 19.4979H28.1276ZM32.9093 34.7817L31.1465 33.2025L33.1479 32.0813C33.3542 31.9656 33.4687 31.7366 33.4389 31.5029C33.4079 31.2679 33.2362 31.0771 33.0083 31.0186L30.426 30.3662L29.2214 18.8609C29.1904 18.5675 28.9423 18.3445 28.6477 18.3445H26.8096V16.8154C26.8096 14.7793 25.1529 13.1226 23.1169 13.1226H22.369C20.333 13.1226 18.6763 14.7793 18.6763 16.8154V18.3445H16.8395C16.5437 18.3445 16.2956 18.5675 16.2646 18.8621L14.6448 34.6648C14.6281 34.8271 14.6806 34.9893 14.7903 35.1109C14.9 35.2314 15.0551 35.3006 15.2185 35.3006H25.5775L25.9652 37.5441C26.0057 37.7767 26.1834 37.9616 26.4148 38.0105C26.645 38.0582 26.8836 37.9616 27.0136 37.7648L28.291 35.8445L29.4683 37.3306C27.4919 38.3647 25.2805 38.911 23.0322 38.911C15.3807 38.911 9.15458 32.6849 9.15458 25.0322C9.15458 17.3795 15.3807 11.1534 23.0322 11.1534C30.6849 11.1534 36.911 17.3795 36.911 25.0322C36.911 28.7261 35.4928 32.1696 32.9093 34.7817Z" fill="white"/>
</g>
</svg>
