<svg width="24" height="20" viewBox="0 0 24 20" fill="none" xmlns="http://www.w3.org/2000/svg">
<path d="M5.21134 0.39764C5.67984 0.927827 5.67984 1.78743 5.21134 2.31762C1.46206 6.56048 1.46206 13.4395 5.21134 17.6824C5.67984 18.2126 5.67984 19.0722 5.21134 19.6024C4.74283 20.1325 3.98323 20.1325 3.51472 19.6024C-1.17157 14.2991 -1.17157 5.70088 3.51472 0.39764C3.98323 -0.132547 4.74283 -0.132547 5.21134 0.39764ZM20.4853 0.39764C25.1716 5.70088 25.1716 14.2991 20.4853 19.6024C20.0168 20.1325 19.2572 20.1325 18.7887 19.6024C18.3202 19.0722 18.3202 18.2126 18.7887 17.6824C22.5379 13.4395 22.5379 6.56048 18.7887 2.31762C18.3202 1.78743 18.3202 0.927827 18.7887 0.39764C19.2572 -0.132547 20.0168 -0.132547 20.4853 0.39764ZM8.7704 4.29862C9.23891 4.8288 9.23891 5.68841 8.7704 6.2186C6.93372 8.29708 6.93372 11.667 8.7704 13.7454C9.23891 14.2756 9.23891 15.1352 8.7704 15.6654C8.30189 16.1956 7.54229 16.1956 7.07378 15.6654C4.30008 12.5266 4.30008 7.43747 7.07378 4.29862C7.54229 3.76843 8.30189 3.76843 8.7704 4.29862ZM17.1182 4.29862C19.8919 7.43747 19.8919 12.5266 17.1182 15.6654C16.6497 16.1956 15.8901 16.1956 15.4216 15.6654C14.9531 15.1352 14.9531 14.2756 15.4216 13.7454C17.2583 11.667 17.2583 8.29708 15.4216 6.2186C14.9531 5.68841 14.9531 4.8288 15.4216 4.29862C15.8901 3.76843 16.6497 3.76843 17.1182 4.29862ZM12.096 8.05847C13.0899 8.05847 13.8955 8.97021 13.8955 10.0949C13.8955 11.2196 13.0899 12.1314 12.096 12.1314C11.1021 12.1314 10.2965 11.2196 10.2965 10.0949C10.2965 8.97021 11.1021 8.05847 12.096 8.05847Z" fill="white"/>
</svg>
